<?xml version="1.0" standalone="no"?>
<!DOCTYPE svg PUBLIC "-//W3C//DTD SVG 20010904//EN"
 "http://www.w3.org/TR/2001/REC-SVG-20010904/DTD/svg10.dtd">
<svg version="1.0" xmlns="http://www.w3.org/2000/svg"
 width="260.000000pt" height="260.000000pt" viewBox="0 0 260.000000 260.000000"
 preserveAspectRatio="xMidYMid meet">
<metadata>
Created by potrace 1.14, written by Peter Selinger 2001-2017
</metadata>
<g transform="translate(0.000000,260.000000) scale(0.100000,-0.100000)"
fill="#000000" stroke="none">
<path d="M1080 2267 c0 -66 5 -103 16 -126 9 -18 18 -51 20 -74 l4 -42 -14 30
c-9 17 -15 38 -16 48 0 9 -7 17 -15 17 -8 0 -15 7 -15 15 0 19 -26 20 -33 1
-4 -9 2 -17 14 -21 10 -4 19 -13 19 -21 0 -8 6 -13 13 -11 8 1 13 -12 14 -36
0 -21 -1 -36 -4 -33 -6 6 -32 -24 -33 -36 0 -14 23 -9 44 10 14 11 17 12 10 2
-5 -8 -9 -34 -9 -57 1 -39 5 -45 85 -114 47 -39 110 -96 140 -125 30 -29 73
-63 95 -74 23 -12 30 -18 15 -14 -46 12 -112 56 -230 155 -65 54 -121 99 -124
99 -7 0 -19 -29 -30 -70 -5 -18 -1 -16 13 10 l19 35 7 -30 c9 -37 21 -83 29
-110 4 -11 -3 -2 -13 20 l-20 40 -3 -505 c-2 -278 -1 -511 1 -518 2 -10 67
-12 299 -10 273 3 297 4 300 20 3 17 -12 18 -202 18 l-206 0 0 437 0 438 -72
74 -73 74 85 -69 c115 -93 213 -133 500 -201 24 -6 25 -5 7 14 -12 14 -37 23
-80 28 l-62 8 43 8 c48 9 62 16 62 30 0 6 -12 8 -28 4 -68 -14 -222 32 -282
84 l-25 22 42 -21 c47 -22 146 -50 178 -49 11 0 -5 8 -35 18 -76 24 -180 76
-223 112 l-37 30 0 260 0 259 197 2 c179 3 198 5 201 21 3 16 -16 17 -292 17
l-296 0 0 -93z m117 -400 c27 -19 60 -64 51 -72 -2 -2 -30 22 -63 53 -58 54
-53 63 12 19z m-70 -219 c-3 -8 -6 -5 -6 6 -1 11 2 17 5 13 3 -3 4 -12 1 -19z
m430 -74 c-3 -3 -12 -4 -19 -1 -8 3 -5 6 6 6 11 1 17 -2 13 -5z"/>
<path d="M951 2121 c-8 -5 -20 -48 -27 -97 -8 -49 -17 -96 -20 -104 -8 -23 -7
-23 38 -27 37 -3 40 -2 23 9 -31 18 -32 24 -19 110 8 44 11 84 9 89 -3 4 1 9
7 12 7 2 11 7 8 10 -3 3 -12 2 -19 -2z"/>
<path d="M971 1924 c13 -16 29 -19 29 -5 0 5 -9 11 -21 14 -16 4 -18 3 -8 -9z"/>
<path d="M905 1858 c-3 -13 -9 -58 -14 -101 -5 -43 -16 -89 -25 -102 -9 -13
-16 -30 -16 -37 0 -20 18 4 35 47 l15 40 -5 -40 c-3 -22 -8 -62 -11 -90 -4
-33 -3 -47 4 -40 15 15 32 108 32 173 0 54 7 98 24 150 4 13 3 22 -3 22 -5 0
-14 -19 -20 -42 l-11 -43 5 43 c6 44 -1 58 -10 20z"/>
<path d="M840 1750 c0 -5 5 -10 11 -10 5 0 7 5 4 10 -3 6 -8 10 -11 10 -2 0
-4 -4 -4 -10z"/>
<path d="M845 1710 c3 -5 8 -10 11 -10 2 0 4 5 4 10 0 6 -5 10 -11 10 -5 0 -7
-4 -4 -10z"/>
<path d="M1000 1430 c0 -5 4 -10 9 -10 6 0 13 5 16 10 3 6 -1 10 -9 10 -9 0
-16 -4 -16 -10z"/>
<path d="M842 1298 c-17 -22 -63 -119 -60 -127 2 -4 20 25 40 66 36 71 41 86
20 61z"/>
<path d="M890 1160 c-6 -11 -8 -20 -6 -20 3 0 10 9 16 20 6 11 8 20 6 20 -3 0
-10 -9 -16 -20z"/>
<path d="M771 1134 c0 -11 3 -14 6 -6 3 7 2 16 -1 19 -3 4 -6 -2 -5 -13z"/>
<path d="M932 1090 c0 -14 2 -19 5 -12 2 6 2 18 0 25 -3 6 -5 1 -5 -13z"/>
<path d="M871 1084 c0 -11 3 -14 6 -6 3 7 2 16 -1 19 -3 4 -6 -2 -5 -13z"/>
<path d="M993 1035 c0 -22 2 -30 4 -17 2 12 2 30 0 40 -3 9 -5 -1 -4 -23z"/>
<path d="M925 1000 c47 -55 48 -56 37 -35 -6 11 -23 31 -39 45 l-28 25 30 -35z"/>
<path d="M814 975 c10 -16 35 -50 57 -75 33 -36 30 -31 -11 25 -61 82 -69 91
-46 50z"/>
<path d="M949 853 c-12 -15 -12 -16 2 -11 9 4 23 1 30 -5 9 -9 9 -6 -1 8 -8
11 -15 21 -16 23 -1 1 -7 -5 -15 -15z"/>
<path d="M890 840 c0 -12 28 -21 35 -11 2 5 -4 11 -15 14 -11 3 -20 2 -20 -3z"/>
<path d="M1000 843 c0 -5 9 -14 20 -21 11 -7 20 -8 20 -2 0 5 -9 14 -20 20
-11 6 -20 7 -20 3z"/>
<path d="M936 765 c14 -58 24 -83 18 -40 -3 22 -10 47 -15 55 -6 10 -7 5 -3
-15z"/>
<path d="M1030 754 c0 -8 5 -12 10 -9 6 4 8 11 5 16 -9 14 -15 11 -15 -7z"/>
<path d="M825 535 c-7 -86 3 -176 21 -182 6 -2 22 6 35 18 15 13 18 19 7 16
-12 -4 -18 3 -23 29 -8 45 2 74 25 74 10 0 22 5 26 11 5 8 -1 10 -20 7 -23 -5
-26 -2 -26 23 0 15 -2 34 -5 41 -4 9 5 18 22 24 28 10 27 11 -14 15 l-42 4 -6
-80z"/>
<path d="M995 565 c-6 -42 -13 -58 -31 -70 -30 -19 -33 -65 -5 -72 14 -3 21
-15 23 -36 2 -21 9 -33 21 -35 15 -3 17 8 17 132 0 139 -13 181 -25 81z m-15
-105 c0 -16 -4 -30 -10 -30 -11 0 -14 43 -3 53 11 12 13 8 13 -23z"/>
<path d="M1380 611 c0 -6 -19 -11 -46 -11 -39 0 -45 -2 -34 -14 6 -8 26 -16
43 -18 l32 -3 -3 -107 c-4 -107 2 -125 28 -93 9 11 11 41 8 105 l-5 90 33 6
c48 9 51 22 7 30 -21 4 -44 11 -50 17 -9 6 -13 6 -13 -2z"/>
<path d="M1536 574 c-9 -69 -7 -212 3 -218 5 -4 15 -4 23 -1 10 4 12 30 8 125
-5 129 -22 176 -34 94z"/>
<path d="M1051 564 c0 -11 3 -14 6 -6 3 7 2 16 -1 19 -3 4 -6 -2 -5 -13z"/>
<path d="M1042 490 c2 -32 7 -53 13 -50 12 6 7 81 -6 95 -7 6 -9 -9 -7 -45z"/>
<path d="M1090 508 c-24 -40 -24 -41 -1 -62 25 -22 49 -15 87 25 l29 32 -45
-32 c-37 -27 -46 -30 -48 -16 -2 9 4 25 13 35 18 19 14 50 -5 50 -6 0 -19 -15
-30 -32z"/>
<path d="M1284 526 c-3 -8 2 -26 11 -39 12 -19 13 -27 4 -33 -8 -5 -9 -3 -4 6
5 9 4 11 -3 6 -17 -10 -15 -36 3 -36 8 0 19 10 26 22 10 18 8 24 -11 38 -15
11 -19 19 -11 24 6 4 11 11 11 17 0 14 -20 11 -26 -5z"/>
<path d="M1435 504 c-8 -43 6 -64 30 -44 10 9 15 9 15 1 0 -23 -39 -122 -60
-151 -27 -38 -21 -48 15 -24 29 19 69 83 79 128 8 34 -3 116 -15 116 -5 0 -9
-5 -9 -11 0 -6 -9 -23 -21 -37 l-21 -27 7 36 c4 21 3 39 -3 43 -5 3 -13 -10
-17 -30z"/>
<path d="M1606 518 c-9 -12 -16 -41 -15 -63 0 -22 3 -35 5 -29 3 7 13 10 22 7
18 -4 78 35 68 44 -3 3 -17 -4 -32 -16 -34 -27 -57 -12 -30 18 10 11 15 25 10
32 -5 8 -3 10 6 4 8 -5 11 -3 8 5 -7 23 -25 22 -42 -2z"/>
<path d="M1710 521 c-13 -25 -13 -32 2 -28 7 1 13 -8 14 -20 1 -12 -2 -20 -7
-18 -4 3 -10 1 -13 -4 -8 -13 9 -22 27 -15 25 9 28 33 5 54 -17 16 -19 22 -8
35 8 10 9 15 2 15 -6 0 -16 -9 -22 -19z"/>
</g>
</svg>
